<svg id="Layer_1" data-name="Layer 1" xmlns="http://www.w3.org/2000/svg" viewBox="0 0 256 256"><defs><style>.cls-1,.cls-2{fill:#fff;}.cls-1{opacity:0.4;}</style></defs><title>Artboard 1 copy</title><circle class="cls-1" cx="129.25" cy="129.25" r="80.75"/><path class="cls-2" d="M164.83,157.77a34.3,34.3,0,0,0-11.46,2,53.16,53.16,0,0,1,4.17,45.17,80.92,80.92,0,0,0,37.13-28.32C189.92,165.56,178.35,157.77,164.83,157.77Z"/><path class="cls-2" d="M146.86,162.88a47.09,47.09,0,0,0-85.23,10.51,80.83,80.83,0,0,0,86.85,34.3,46,46,0,0,0-1.62-44.81Z"/><circle class="cls-2" cx="108.76" cy="104.86" r="27.54"/><circle class="cls-2" cx="163.91" cy="127.88" r="21.63" transform="translate(-25 41.08) rotate(-13.28)"/></svg>