<?xml version="1.0" encoding="UTF-8"?>
<svg width="88px" height="88px" viewBox="0 0 88 88" version="1.1" xmlns="http://www.w3.org/2000/svg" xmlns:xlink="http://www.w3.org/1999/xlink">
    <!-- Generator: Sketch 50.2 (55047) - http://www.bohemiancoding.com/sketch -->
    <title>date</title>
    <desc>Created with Sketch.</desc>
    <defs></defs>
    <g id="date" stroke="none" stroke-width="1" fill="none" fill-rule="evenodd">
        <g id="Group-2" transform="translate(25.000000, 24.000000)" fill="#FFFFFF" fill-rule="nonzero">
            <path d="M0,39.594184 C0,40.0558611 0.375,40.4305556 0.833333333,40.4305556 C14.4582348,40.4305556 24.676911,40.4305556 31.4893617,40.4305556 C33.1954295,40.4305556 35.7545311,40.4305556 39.1666667,40.4305556 C39.6266667,40.4305556 40,40.0558611 40,39.594184 C40,36.8226618 40,34.7440201 40,33.3582589 C40,28.9823495 40,22.4184854 40,13.6666667 L0,13.6666667 L0,39.594184 Z" id="Shape" fill-opacity="0.4"></path>
            <path d="M0,38.4908854 C0,38.9329167 0.375,39.2916667 0.833333333,39.2916667 C14.4582348,39.2916667 24.676911,39.2916667 31.4893617,39.2916667 C33.1954295,39.2916667 35.7545311,39.2916667 39.1666667,39.2916667 C39.6266667,39.2916667 40,38.9329167 40,38.4908854 C40,35.8373003 40,33.8471114 40,32.5203188 C40,28.3306184 40,22.0460676 40,13.6666667 L0,13.6666667 L0,38.4908854 Z" id="Shape-Copy" fill-opacity="0.4"></path>
            <path d="M0,36.8359375 C0,37.2485 0.375,37.5833333 0.833333333,37.5833333 C14.4582348,37.5833333 24.676911,37.5833333 31.4893617,37.5833333 C33.1954295,37.5833333 35.7545311,37.5833333 39.1666667,37.5833333 C39.6266667,37.5833333 40,37.2485 40,36.8359375 C40,34.359258 40,32.5017484 40,31.2634087 C40,27.3530216 40,21.4874409 40,13.6666667 L0,13.6666667 L0,36.8359375 Z" id="Shape"></path>
            <g id="Group">
                <path d="M39.1666667,3.34548611 L33.3333333,3.34548611 L33.3333333,0.836371528 C33.3333333,0.374694444 32.96,0 32.5,0 L27.5,0 C27.0416667,0 26.6666667,0.374694444 26.6666667,0.836371528 L26.6666667,3.34548611 L13.3333333,3.34548611 L13.3333333,0.836371528 C13.3333333,0.374694444 12.96,0 12.5,0 L7.5,0 C7.04166667,0 6.66666667,0.374694444 6.66666667,0.836371528 L6.66666667,3.34548611 L0.833333333,3.34548611 C0.375,3.34548611 0,3.72018056 0,4.18185764 L0,11.7092014 L40,11.7092014 L40,4.18185764 C40,3.72018056 39.6266667,3.34548611 39.1666667,3.34548611 Z M11.6666667,6.69097222 L8.33333333,6.69097222 L8.33333333,1.67274306 L11.6666667,1.67274306 L11.6666667,6.69097222 Z M31.6666667,6.69097222 L28.3333333,6.69097222 L28.3333333,1.67274306 L31.6666667,1.67274306 L31.6666667,6.69097222 Z" id="Shape"></path>
            </g>
        </g>
    </g>
</svg>