<?xml version="1.0" encoding="UTF-8"?>
<svg width="88px" height="88px" viewBox="0 0 88 88" version="1.1" xmlns="http://www.w3.org/2000/svg" xmlns:xlink="http://www.w3.org/1999/xlink">
    <!-- Generator: Sketch 50.2 (55047) - http://www.bohemiancoding.com/sketch -->
    <title>text</title>
    <desc>Created with Sketch.</desc>
    <defs></defs>
    <g id="text" stroke="none" stroke-width="1" fill="none" fill-rule="evenodd">
        <g id="Group" transform="translate(21.000000, 22.000000)" fill="#FFFFFF" fill-rule="nonzero">
            <path d="M20.5625,40.125 L17.625,40.125 L17.625,4.875 L27.4166667,4.875 L27.4166667,8.79166667 C27.4166667,9.874625 28.2920417,10.75 29.375,10.75 C30.456,10.75 31.3333333,9.874625 31.3333333,8.79166667 L31.3333333,2.91666667 C31.3333333,1.83566667 30.456,0.958333333 29.375,0.958333333 L1.95833333,0.958333333 C0.875375,0.958333333 0,1.83566667 0,2.91666667 L0,8.79166667 C0,9.874625 0.875375,10.75 1.95833333,10.75 C3.03933333,10.75 3.91666667,9.874625 3.91666667,8.79166667 L3.91666667,4.875 L13.7083333,4.875 L13.7083333,40.125 L10.7708333,40.125 C9.687875,40.125 8.8125,41.0023333 8.8125,42.0833333 C8.8125,43.1662917 9.687875,44.0416667 10.7708333,44.0416667 L20.5625,44.0416667 C21.6435,44.0416667 22.5208333,43.1662917 22.5208333,42.0833333 C22.5208333,41.0023333 21.6435,40.125 20.5625,40.125 Z" id="Shape"></path>
            <path d="M45.0416667,14.6666667 L25.4583333,14.6666667 C24.375375,14.6666667 23.5,15.544 23.5,16.625 L23.5,20.5416667 C23.5,21.624625 24.375375,22.5 25.4583333,22.5 C26.5393333,22.5 27.4166667,21.624625 27.4166667,20.5416667 L27.4166667,18.5833333 L33.2916667,18.5833333 L33.2916667,40.125 L32.3125,40.125 C31.2295417,40.125 30.3541667,41.0023333 30.3541667,42.0833333 C30.3541667,43.1662917 31.2295417,44.0416667 32.3125,44.0416667 L38.1875,44.0416667 C39.2685,44.0416667 40.1458333,43.1662917 40.1458333,42.0833333 C40.1458333,41.0023333 39.2685,40.125 38.1875,40.125 L37.2083333,40.125 L37.2083333,18.5833333 L43.0833333,18.5833333 L43.0833333,20.5416667 C43.0833333,21.624625 43.9587083,22.5 45.0416667,22.5 C46.1226667,22.5 47,21.624625 47,20.5416667 L47,16.625 C47,15.544 46.1226667,14.6666667 45.0416667,14.6666667 Z" id="Shape" opacity="0.4"></path>
        </g>
    </g>
</svg>