<svg width="18" height="23" viewBox="0 0 18 23" fill="none" xmlns="http://www.w3.org/2000/svg">
<g clip-path="url(#clip0)">
<path fill-rule="evenodd" clip-rule="evenodd" d="M17.0625 22.9091H0.9375C0.419733 22.9091 0 22.4894 0 21.9716V0.9375C0 0.419733 0.419733 0 0.9375 0L11.9136 0C12.1704 0 12.416 0.10533 12.5929 0.291395L17.7418 5.70482C17.9076 5.8791 18 6.11041 18 6.35093V21.9716C18 22.4894 17.5803 22.9091 17.0625 22.9091Z" fill="#FF642E"/>
<path d="M11.2187 12.8424C11.129 12.9321 10.9836 12.9321 10.8938 12.8424C10.8041 12.7527 10.8041 12.6073 10.8938 12.5176L12.9436 10.4673C13.6087 9.80209 13.6087 8.72277 12.9436 8.05753C12.2795 7.39326 11.2004 7.39326 10.5354 8.05749L8.48567 10.1087C8.39601 10.1984 8.25058 10.1985 8.16085 10.1088C8.07112 10.0191 8.07107 9.8737 8.16074 9.78397L10.2107 7.73263C11.0551 6.88906 12.425 6.88906 13.2684 7.73273C14.1129 8.57737 14.1129 9.9475 13.2684 10.7921L11.2187 12.8424Z" fill="white"/>
<path d="M6.78208 11.1605C6.87174 11.0708 7.01717 11.0707 7.1069 11.1604C7.19663 11.2501 7.19668 11.3955 7.10702 11.4852L5.05817 13.5355C4.39307 14.2007 4.39307 15.2801 5.05817 15.9453C5.72229 16.6096 6.80137 16.6096 7.46634 15.9453L9.51612 13.8951C9.60581 13.8054 9.75124 13.8053 9.84094 13.895C9.93065 13.9847 9.93067 14.1302 9.84098 14.2199L7.7911 16.2702C6.94663 17.1138 5.5768 17.1138 4.7333 16.2701C3.88886 15.4255 3.88886 14.0553 4.73327 13.2107L6.78208 11.1605Z" fill="white"/>
<path d="M10.4986 10.0814C10.5883 9.99171 10.7338 9.99169 10.8235 10.0814C10.9132 10.1711 10.9132 10.3165 10.8235 10.4062L7.40624 13.8242C7.31655 13.9139 7.17112 13.9139 7.08141 13.8243C6.99171 13.7346 6.99169 13.5891 7.08138 13.4994L10.4986 10.0814Z" fill="white"/>
<path fill-rule="evenodd" clip-rule="evenodd" d="M10.2107 7.73263C11.0551 6.88906 12.425 6.88906 13.2684 7.73273C14.1129 8.57737 14.1129 9.9475 13.2684 10.7921L11.2187 12.8424C11.129 12.9321 10.9836 12.9321 10.8938 12.8424C10.8041 12.7527 10.8041 12.6073 10.8938 12.5176L12.9436 10.4673C13.6087 9.80209 13.6087 8.72277 12.9436 8.05753C12.2795 7.39326 11.2004 7.39326 10.5354 8.05749L8.48567 10.1087C8.39601 10.1984 8.25058 10.1985 8.16085 10.1088C8.07112 10.0191 8.07107 9.8737 8.16074 9.78397L10.2107 7.73263ZM10.6768 8.19898L8.62714 10.2501C8.4594 10.4179 8.18734 10.418 8.01948 10.2503C7.85161 10.0825 7.85152 9.81046 8.01926 9.6426L10.0692 7.59126C10.9917 6.66972 12.4882 6.66948 13.4099 7.59133C14.3324 8.51407 14.3324 10.0108 13.4099 10.9335L11.3601 12.9838C11.1923 13.1516 10.9203 13.1516 10.7524 12.9838C10.5846 12.816 10.5846 12.544 10.7524 12.3762L12.8021 10.3259C13.3892 9.73879 13.3892 8.78608 12.8021 8.19893C12.2162 7.61284 11.2637 7.61271 10.6768 8.19898ZM5.1996 13.6769C4.61259 14.264 4.61259 15.2167 5.1996 15.8039C5.78557 16.39 6.73806 16.3901 7.32499 15.8038L9.37468 13.7537C9.54246 13.5858 9.81453 13.5858 9.98235 13.7536C10.1502 13.9214 10.1502 14.1934 9.98242 14.3613L7.93254 16.4116C7.01002 17.3331 5.51351 17.3333 4.59187 16.4115C3.66935 15.4888 3.66933 13.9921 4.5918 13.0694C4.59181 13.0694 4.59178 13.0694 4.5918 13.0694L6.64061 11.0191C6.80835 10.8513 7.08042 10.8512 7.24828 11.0189C7.41614 11.1867 7.41623 11.4587 7.24849 11.6266L5.1996 13.6769ZM7.46634 15.9453C6.80137 16.6096 5.72229 16.6096 5.05817 15.9453C4.39307 15.2801 4.39307 14.2007 5.05817 13.5355L7.10702 11.4852C7.19668 11.3955 7.19663 11.2501 7.1069 11.1604C7.01717 11.0707 6.87174 11.0708 6.78208 11.1605L4.73327 13.2107C3.88886 14.0553 3.88886 15.4255 4.7333 16.2701C5.5768 17.1138 6.94663 17.1138 7.7911 16.2702L9.84098 14.2199C9.93067 14.1302 9.93065 13.9847 9.84094 13.895C9.75124 13.8053 9.60581 13.8054 9.51612 13.8951L7.46634 15.9453ZM10.3572 9.94001C10.525 9.77219 10.7971 9.77216 10.9649 9.93994C11.1327 10.1077 11.1327 10.3798 10.9649 10.5476L7.54768 13.9656C7.37989 14.1334 7.10783 14.1335 6.94001 13.9657C6.77219 13.7979 6.77216 13.5258 6.93994 13.358L10.3572 9.94001ZM10.8235 10.0814C10.7338 9.99169 10.5883 9.99171 10.4986 10.0814L7.08138 13.4994C6.99169 13.5891 6.99171 13.7346 7.08141 13.8243C7.17112 13.9139 7.31655 13.9139 7.40624 13.8242L10.8235 10.4062C10.9132 10.3165 10.9132 10.1711 10.8235 10.0814Z" fill="white"/>
</g>
<defs>
<clipPath id="clip0">
<rect width="18" height="23" fill="white"/>
</clipPath>
</defs>
</svg>
