<?xml version="1.0" encoding="iso-8859-1"?>
<!-- Uploaded to: SVG Repo, www.svgrepo.com, Generator: SVG Repo Mixer Tools -->
<svg fill="#000000" version="1.1" id="Layer_1" xmlns="http://www.w3.org/2000/svg" xmlns:xlink="http://www.w3.org/1999/xlink" 
	 viewBox="0 0 512 512" xml:space="preserve">
<g>
	<g>
		<g>
			<rect x="44.33" y="391.683" width="247.531" height="16.223"/>
			<rect x="44.33" y="245.426" width="247.531" height="16.223"/>
			<rect x="44.33" y="142.757" width="202.526" height="16.223"/>
			<rect x="44.33" y="318.555" width="247.531" height="16.223"/>
			<rect x="44.33" y="428.249" width="292.077" height="16.223"/>
			<rect x="44.33" y="208.862" width="292.077" height="16.223"/>
			<path d="M511.981,114.304c0-2.11-0.806-4.185-2.357-5.736L407.636,6.581c-1.551-1.551-3.625-2.356-5.736-2.356V4.205H139.375
				c-4.48,0-8.112,3.632-8.112,8.112v36.188H8.112C3.632,48.504,0,52.136,0,56.616v443.068c0,4.48,3.632,8.112,8.112,8.112h364.513
				c4.48,0,8.112-3.632,8.112-8.112v-36.188h123.152c4.48,0,8.112-3.632,8.112-8.112v-341.08H511.981z M410.012,31.9l74.292,74.292
				h-74.292V31.9z M364.513,491.572H16.223V64.728h246.302v93.876c0,4.48,3.632,8.112,8.112,8.112h93.876V491.572z M278.748,150.492
				V76.2l74.292,74.292H278.748z M495.777,447.272h-115.04V158.604h-0.019c-0.001-2.11-0.806-4.185-2.357-5.735L276.372,50.88
				c-1.551-1.552-3.625-2.356-5.735-2.356v-0.019h-123.15V20.428h246.302v93.876c0,4.48,3.632,8.112,8.112,8.112h93.876V447.272z"/>
			<rect x="44.33" y="355.119" width="292.077" height="16.223"/>
			<rect x="44.33" y="281.99" width="292.077" height="16.223"/>
		</g>
	</g>
</g>
</svg>